<?xml version="1.0" encoding="utf-8"?>
<!-- Generator: Adobe Illustrator 24.0.1, SVG Export Plug-In . SVG Version: 6.00 Build 0)  -->
<svg version="1.1" id="Layer_1" xmlns="http://www.w3.org/2000/svg" xmlns:xlink="http://www.w3.org/1999/xlink" x="0px" y="0px"
	 viewBox="0 0 512 512" style="enable-background:new 0 0 512 512;" xml:space="preserve">
<style type="text/css">
	.st0{fill:#2A59D1;}
</style>
<g id="Outline">
	<rect x="286" y="99.8" transform="matrix(0.3995 -0.9167 0.9167 0.3995 78.3457 335.2028)" class="st0" width="18.1" height="16"/>
	<path class="st0" d="M121.3,416c12.4,0.1,22.5-9.8,22.7-22.2c0-0.9,0-1.7-0.1-2.5c-1.2-13.1-12.2-23.2-25.4-23.3
		c-12.4-0.1-22.5,9.8-22.7,22.1c0,0.9,0,1.7,0.1,2.6C97.2,405.8,108.2,415.9,121.3,416z M113.5,386.1c1.3-1.4,3.1-2.1,5-2.1
		c4.9,0.2,8.9,3.9,9.4,8.7c0.2,1.9-0.4,3.8-1.6,5.2c-1.3,1.4-3.1,2.1-5,2.1c-4.9-0.2-8.9-3.9-9.4-8.7
		C111.7,389.4,112.3,387.5,113.5,386.1L113.5,386.1z"/>
	<path class="st0" d="M476.4,432c10.8,0,19.6-8.8,19.6-19.6v-32.7c0-10.8-8.8-19.6-19.6-19.6H464v-8c0-4.4-3.6-8-8-8h-72
		c-4.4,0-8,3.6-8,8v96h-44.9l35.7-107.1l38.5-28.9h19.5c8.8,0,16,7.2,16,16c0,1.4-0.2,2.7-0.5,4.1l15.5,4.1
		c4.5-17.1-5.7-34.6-22.8-39.1c-2.1-0.6-4.2-0.9-6.4-1l1.8-1.3l18.3-10.4c39.3-22.5,53-72.6,30.5-112c-5.6-9.7-13-18.2-22-24.9
		l-59.1-45.5c4.8-10.9,5.1-23.2,0.8-34.3c-4.4-11-13.1-19.7-24-24.2l-59-24.6c-18-7.5-38.6,0.8-46.6,18.5
		c-3.7,8.5-3.9,18.1-0.4,26.7h-84.2c-10.8,0-21.4,2.6-30.9,7.6l7.4,14.2c7.3-3.8,15.3-5.8,23.5-5.8h89l-34.7,29
		c-3.4,2.8-3.9,7.8-1,11.2c0.2,0.3,0.5,0.6,0.8,0.8l-45.9,7.1c-4.4,0.7-7.4,4.8-6.7,9.1c0.1,0.6,0.3,1.2,0.5,1.8l13,32.4L149,189.6
		l-14.3-43c-3.9-11.8-3.3-24.5,1.5-35.9c3-7,7.6-13.3,13.3-18.3L139,80.3c-7.6,6.6-13.6,14.8-17.6,24.1c-6.3,15-7,31.8-2,47.3
		l17,50.9l23.2,69.7l-6.5,24.9l15.5,4l7.1-27.2c0.4-1.5,0.3-3.1-0.2-4.5L154,204.8l50-18.8l20.8,41.6c1,2,2.7,3.4,4.8,4.1l104,32
		c2.1,0.6,4.4,0.4,6.3-0.7l48.7-27.8l25.2,50.5l-58.7,44c-1.3,1-2.3,2.3-2.8,3.9L314.2,448H304v-24c0-4.4-3.6-8-8-8h-73.2
		l-20.1-85.5c-2.5-10.9-12.2-18.5-23.4-18.5H38.1c-12.2,0-22.1,9.9-22.1,22.1c0,1.9,0.3,3.8,0.7,5.7l5.9,22.2l15.5-4.1l-5.9-22.2
		c-0.9-3.3,1.1-6.6,4.4-7.5c0.5-0.1,1.1-0.2,1.6-0.2h141.2c3.7,0,6.9,2.5,7.8,6.2l24.5,104c1,4.3-1.7,8.6-6,9.6
		c-0.6,0.1-1.2,0.2-1.8,0.2H68.3c-3.6,0-6.8-2.4-7.7-5.9L42,372.5l-15.5,4.1l18.6,69.6c0.2,0.6,0.4,1.2,0.6,1.8H24c-4.4,0-8,3.6-8,8
		v32c0,4.4,3.6,8,8,8h464c4.4,0,8-3.6,8-8v-32c0-4.4-3.6-8-8-8h-24v-16H476.4z M286.2,213.2c15.5,7.2,33.9,1.2,42-13.8l18.6-34.8
		l1.3,7.1l-30.6,70.3l-54.9-16.9l8.4-19.2L286.2,213.2z M282.2,43.8c3.1-7,10-12.4,18.3-11.7c4.5,0.4,8.9,2.1,13.1,3.9l45.1,18.7
		c21.1,8.8,30,23,20.7,45.1c-6.5,15.3-13.1,30.6-19.9,45.7c0-3.6-0.8-7.3-3.1-10s-6.6-3.9-9.7-2.1c-2,1.2-3.3,3.4-4.4,5.5l-25,47.2
		c-7,13.3-15.5,16.8-29.6,10.1l-31.1-14.9c-3.5-1.7-7.4-3.7-8.7-7.4c-2.3-6.2,3.8-12.2,5.3-18.7c9.4,5.9,21.3,6.2,31,0.7l-9.7-12.8
		c-5.1,1.5-10.6,0.5-14.8-2.7l3.5-8l32.8,13.7c4.4,1.9,7.5,1.5,11.5-1.3l32.7-22.8c3.6-2.5,7.3-5.1,9.6-8.8c4-6.7,2.9-15.2-2.7-20.7
		c-2.9-2.7-6.7-4.3-10.4-5.8l-37.2-15.2c-5.5-2.3-11.3-4.7-15.1-9.3C279.8,56.9,279.6,49.8,282.2,43.8z M290.4,85.1l45.5,18.9
		c0.4,0.4,0.4,1,0,1.4c0,0-0.1,0.1-0.1,0.1l-35.7,25l-42.8-17.8L290.4,85.1z M203.2,142.4l40.9-6.3l-10.6,24.3
		c-2.8,6.3-2.9,13.5-0.3,19.9c2.6,6.4,7.6,11.5,14,14.2l9.4,4.5l-9.3,21.3l-9.6-3L203.2,142.4z M335,247.3l-2.1-0.7l33.2-76.2
		l37.2,36.3L335,247.3z M402.3,226.7l18.1-12.1c3.7-2.5,4.7-7.4,2.2-11.1c-0.3-0.5-0.7-0.9-1.1-1.3L373,154.8l16.1-37l56.5,42.4
		c29.2,21.9,35.1,63.3,13.2,92.5c-5.4,7.2-12.2,13.3-20.1,17.7l-11.3,6.5L402.3,226.7z M476.4,376c2,0,3.6,1.6,3.6,3.6v32.7
		c0,2-1.6,3.6-3.6,3.6H464v-40H476.4z M227.2,434.5l-0.6-2.5H288v16h-61.6C228,443.7,228.2,439,227.2,434.5z M480,480H32v-16h448
		V480z M392,448v-88h56v88H392z"/>
</g>
</svg>
