<svg id="Layer_1" data-name="Layer 1" xmlns="http://www.w3.org/2000/svg" xmlns:xlink="http://www.w3.org/1999/xlink" viewBox="0 0 2000 1200"><defs><style>.cls-1{fill:url(#linear-gradient);}.cls-2{opacity:0.19;}.cls-3{fill:#343435;}.cls-4{opacity:0.67;}.cls-5{opacity:0.5;}.cls-5,.cls-6,.cls-7{isolation:isolate;}.cls-6{opacity:0.32;}.cls-7{opacity:0.2;}</style><linearGradient id="linear-gradient" y1="600" x2="2000" y2="600" gradientUnits="userSpaceOnUse"><stop offset="0" stop-color="#c4c4c4"/><stop offset="0.89" stop-color="#799dd3"/></linearGradient></defs><title>hero-10-bg</title><rect class="cls-1" width="2000" height="1200"/><g class="cls-2"><path class="cls-3" d="M590.33,175.82a54,54,0,1,1,54-54A54.06,54.06,0,0,1,590.33,175.82Zm0-88a34,34,0,1,0,34,34A34,34,0,0,0,590.33,87.82Z"/><path class="cls-3" d="M251.55,440.21a71.89,71.89,0,1,1,71.89-71.89A72,72,0,0,1,251.55,440.21Zm0-128.78a56.89,56.89,0,1,0,56.89,56.89A57,57,0,0,0,251.55,311.43Z"/><path class="cls-3" d="M278.4,358.78a71.89,71.89,0,1,1,71.89-71.89A72,72,0,0,1,278.4,358.78Zm0-128.78a56.89,56.89,0,1,0,56.89,56.89A57,57,0,0,0,278.4,230Z"/><path class="cls-3" d="M1406,666.39A66.39,66.39,0,1,1,1472.4,600,66.46,66.46,0,0,1,1406,666.39Zm0-128.78A62.39,62.39,0,1,0,1468.4,600,62.46,62.46,0,0,0,1406,537.61Z"/><path class="cls-3" d="M1406,726.5A126.5,126.5,0,1,1,1532.51,600,126.65,126.65,0,0,1,1406,726.5Zm0-249A122.5,122.5,0,1,0,1528.51,600,122.63,122.63,0,0,0,1406,477.5Z"/><path class="cls-3" d="M1406,852a252,252,0,1,1,178.19-73.81A250.34,250.34,0,0,1,1406,852Zm0-500a248,248,0,1,0,175.36,72.64A246.38,246.38,0,0,0,1406,352Z"/><path class="cls-3" d="M1406,979.5a378.3,378.3,0,1,1,147.72-29.82A377.13,377.13,0,0,1,1406,979.5Zm0-755A374.36,374.36,0,1,0,1552.17,254,373.15,373.15,0,0,0,1406,224.5Z"/><g class="cls-4"><g class="cls-5"><circle class="cls-3" cx="94.37" cy="1134.72" r="42.58" transform="translate(-1041.9 1208.07) rotate(-88.94)"/></g><rect class="cls-3" x="-155.17" y="1073.38" width="631.02" height="1" transform="translate(-712.39 427.91) rotate(-45)"/><g class="cls-6"><circle class="cls-3" cx="376.01" cy="851.15" r="129.69"/></g><path class="cls-3" d="M376,1102.8A251.66,251.66,0,1,1,554,1029.09,250,250,0,0,1,376,1102.8Zm0-502.3a250.64,250.64,0,1,0,177.24,73.41A249,249,0,0,0,376,600.5Z"/><g class="cls-7"><circle class="cls-3" cx="270.52" cy="692.43" r="19.36" transform="translate(-439.34 913.18) rotate(-85.93)"/></g></g></g></svg>