<?xml version="1.0" encoding="utf-8"?>
<!-- Generator: Adobe Illustrator 24.0.1, SVG Export Plug-In . SVG Version: 6.00 Build 0)  -->
<svg version="1.1" id="Capa_1" xmlns="http://www.w3.org/2000/svg" xmlns:xlink="http://www.w3.org/1999/xlink" x="0px" y="0px"
	 viewBox="0 0 512 512" style="enable-background:new 0 0 512 512;" xml:space="preserve">
<style type="text/css">
	.st0{fill:#2A59D1;}
</style>
<g>
	<path class="st0" d="M434.7,228.6l-4.4,0v-28.1c0-21.9,8.7-42.8,20.2-55.7c15.4-17.2,23.8-39.4,23.8-62.5c0-32-16.6-62.5-43.4-79.6
		c-11.4-7.3-26.4,1-26.4,14.6v59.1c0,13.2-10.7,24-24,24s-24-10.7-24-24V17.3c0-13.6-15-21.8-26.4-14.6
		c-26.8,17.1-43.4,47.6-43.4,79.6c0,23.1,8.5,45.3,23.8,62.5c9.9,11.1,18.1,28.9,19.8,47.9c-20.8,1.9-39,11.2-50.8,26.2l-12.8,16.3
		c-6.4,8.1-16,12.8-26.4,12.8h-11.4c-0.4-15.8-13.4-28.5-29.2-28.5c-13.5,0-24.9,9.2-28.3,21.7H61.8c-13.3,0-24.1,10.8-24.1,24.1
		v126.1c0,13.3,10.8,24.1,24.1,24.1H174c4.9,9.3,14.7,15.6,25.9,15.6c14.4,0,26.5-10.5,28.8-24.3h28.6c4.3,0,8.5,0.8,12.4,2.4
		c22.5,8.2,33.6,15.7,61.1,20.5v32.4c0,27.4,22.3,49.8,49.8,49.8s49.8-22.3,49.8-49.8v-43.4c3.6-5.5,5.4-11.9,5.1-18.6
		c-0.3-6.1-2.4-11.8-5.9-16.6c11.5-4.3,19.7-15.2,19.7-28c0-9.1-3.3-17.1-8.9-23c8-5.5,13.4-14.4,13.7-24.5c0.2-7.4-2.2-14.4-6.4-20
		c10.8-4.9,18.4-15.8,18.4-28.4C465.9,242.6,451.9,228.6,434.7,228.6L434.7,228.6z M214.1,401.9c0,7.9-6.4,14.3-14.3,14.3
		s-14.3-6.4-14.3-14.3v-18.3c0-4.1-3.4-7.5-7.5-7.5s-7.5,3.4-7.5,7.5v17H61.8c-5,0-9.1-4.1-9.1-9.1V265.3c0-5,4.1-9.1,9.1-9.1h108.8
		v92.3c0,4.1,3.4,7.5,7.5,7.5s7.5-3.4,7.5-7.5v-99.8c0,0,0,0,0,0c0-7.9,6.4-14.3,14.3-14.3c7.9,0,14.3,6.4,14.3,14.3L214.1,401.9
		L214.1,401.9z M321.8,134.8c-12.9-14.4-20-33.1-20-52.5c0-26.9,14-52.6,36.5-67c1.5-0.9,3.4,0.2,3.4,1.9v59.1c0,21.5,17.5,39,39,39
		s39-17.5,39-39V17.3c0-1.7,1.9-2.8,3.4-1.9c22.5,14.4,36.5,40,36.5,67c0,19.4-7.1,38-20,52.5c-13.9,15.5-24,40-24,65.7v28.1
		l-13.1,0v-15.5c0-4.1-3.4-7.5-7.5-7.5s-7.5,3.4-7.5,7.5v15.5l-13.3,0v-55.9c0-3.7,3-6.6,6.6-6.6c3.7,0,6.6,3,6.6,6.6v5.3
		c0,4.1,3.4,7.5,7.5,7.5s7.5-3.4,7.5-7.5v-5.3c0-11.9-9.7-21.6-21.6-21.6s-21.6,9.7-21.6,21.6v55.9l-5.5,0c-4.7,0-7.6-3.7-7.6-8.2
		C345.8,202.6,349.1,165.4,321.8,134.8z M415.3,462.2c0,19.2-15.6,34.8-34.8,34.8s-34.8-15.6-34.8-34.8v-30.4
		c4.4,0.4,8.7,0.6,13.1,0.7V460c0,11.9,9.7,21.6,21.6,21.6c11.9,0,21.6-9.7,21.6-21.6v-27.2c0.9-0.1,6.6,0.5,13.1-2V462.2z
		 M373.9,460v-27.4l13.3,0.1V460c0,3.7-3,6.6-6.6,6.6C376.9,466.7,373.9,463.7,373.9,460L373.9,460z M434.7,275.9h-9.2
		c-4.1,0-7.5,3.4-7.5,7.5v0.2c0,3.8,2.9,7,6.7,7.5c8.3,0.9,14.6,8.2,14.3,16.6c-0.3,8.6-7.8,15.6-16.8,15.6l-3.2,0
		c-4.1,0-7.5,3.4-7.5,7.5c0,4,3.2,7.3,7.2,7.5c9,0.3,15.5,7.6,15.4,17.3c0,8.3-7,15-15.5,15h-5c-4.7,0-8.5,3.8-8.5,8.5
		c0,3.4,2,6.5,5.2,7.8c6,2.5,9.8,7.9,10.1,14c0.4,9.3-6.9,16.9-16.1,16.9c-40.5-0.6-48.4,0.4-65.2-1.9c-0.1,0-0.1,0-0.2,0
		c-29.3-4.1-43.1-13.2-63.8-20.6c-5.7-2.3-11.8-3.4-18-3.4h-28.2V263h11.3c15,0,28.9-6.8,38.2-18.5l12.8-16.3
		c9.1-11.5,23.2-18.8,39.4-20.5v12.7c0,12.8,9.7,23.2,22.6,23.2c9.8,0,59.7,0,69.4,0.1h0h0l11.9,0c8.9,0,16.2,7.2,16.2,16.2
		C450.9,268.7,443.7,275.9,434.7,275.9L434.7,275.9z"/>
</g>
</svg>
