<svg id="Layer_1" data-name="Layer 1" xmlns="http://www.w3.org/2000/svg" viewBox="0 0 100 100"><defs><style>.cls-1{fill:#2a59d1;}</style></defs><title>realtime</title><path class="cls-1" d="M99.81,54.62A39.43,39.43,0,0,0,69.15,20.05v-5A6.64,6.64,0,0,0,67.55,2H53.49a6.64,6.64,0,0,0-1.61,13.09v5A39.57,39.57,0,0,0,29.33,34.41H15.27a2,2,0,1,0,0,3.91H26.68a38.63,38.63,0,0,0-3.47,7.51H2a2,2,0,0,0,0,3.9H22.11a38.91,38.91,0,0,0-1,7.51H12.5a2,2,0,0,0,0,3.91h8.7a39.11,39.11,0,0,0,1.22,7.5H9.77a2,2,0,1,0,0,3.91h13.9a39.13,39.13,0,0,0,9,13.89,39.54,39.54,0,0,0,24,11.37c1.29.12,2.58.19,3.87.19a39.52,39.52,0,0,0,21.53-6.37,2,2,0,1,0-2.13-3.27A35.54,35.54,0,1,1,90.39,77.88,1.95,1.95,0,1,0,93.66,80,39.58,39.58,0,0,0,99.81,54.62Zm-49.06-46a2.74,2.74,0,0,1,2.74-2.74H67.55a2.74,2.74,0,0,1,0,5.47H53.49A2.74,2.74,0,0,1,50.75,8.65Zm5,10.74v-4.1h9.46v4.1A39.91,39.91,0,0,0,55.79,19.39Z"/><path class="cls-1" d="M87.07,83.11a2,2,0,0,0-1.39.57A2,2,0,0,0,87.07,87a2,2,0,0,0,1.38-.57,2,2,0,0,0-1.38-3.33Z"/><path class="cls-1" d="M60.55,28.24a30.3,30.3,0,1,0,30.3,30.3A30.34,30.34,0,0,0,60.55,28.24Zm0,56.7a26.4,26.4,0,1,1,26.39-26.4A26.42,26.42,0,0,1,60.55,84.94Z"/><path class="cls-1" d="M72.9,43.43,63.23,53.1a6,6,0,0,0-5.36,0l-4.33-4.33a2,2,0,0,0-2.76,2.76l4.32,4.33a6.08,6.08,0,1,0,10.89,0l9.39-9.39.29-.28a2,2,0,0,0-2.77-2.76ZM60.55,60.71a2.17,2.17,0,1,1,2.16-2.17A2.17,2.17,0,0,1,60.55,60.71Z"/><path class="cls-1" d="M81.43,56.61H79.62a2,2,0,0,0,0,3.91h1.81a2,2,0,0,0,0-3.91Z"/><path class="cls-1" d="M41.47,56.57h-1.8a2,2,0,1,0,0,3.9h1.8a2,2,0,1,0,0-3.9Z"/><path class="cls-1" d="M60.57,41.42a2,2,0,0,0,2-2V37.66a1.95,1.95,0,0,0-3.9,0v1.81A2,2,0,0,0,60.57,41.42Z"/><path class="cls-1" d="M60.52,75.66a2,2,0,0,0-2,2v1.81a2,2,0,0,0,3.91,0V77.62A2,2,0,0,0,60.52,75.66Z"/><path class="cls-1" d="M2,68.64a2,2,0,0,0-1.38.57A2,2,0,0,0,.57,72,2,2,0,0,0,2,72.55a2,2,0,1,0,0-3.91Z"/></svg>